<mxfile host="app.diagrams.net" modified="2023-02-28T13:17:18.183Z" agent="5.0 (Windows NT 10.0; Win64; x64) AppleWebKit/537.36 (KHTML, like Gecko) Chrome/108.0.0.0 Safari/537.36" etag="VeCSwBLF1FZ2ntzHcEiw" version="20.8.21" type="github">
  <diagram id="3228e29e-7158-1315-38df-8450db1d8a1d" name="Page-1">
    <mxGraphModel dx="1221" dy="687" grid="1" gridSize="10" guides="1" tooltips="1" connect="1" arrows="1" fold="1" page="1" pageScale="1" pageWidth="1169" pageHeight="827" background="none" math="0" shadow="0">
      <root>
        <mxCell id="0" />
        <mxCell id="1" parent="0" />
        <mxCell id="21541" value="" style="ellipse;whiteSpace=wrap;rotation=-40;fillColor=#F08705;opacity=60;strokeColor=none;html=1;" parent="1" vertex="1">
          <mxGeometry x="380.00113286638873" y="287.1131457523918" width="388.08058261758396" height="156.37594983072486" as="geometry" />
        </mxCell>
        <mxCell id="21542" value="" style="ellipse;whiteSpace=wrap;rotation=135;fillColor=#E85642;opacity=60;strokeColor=none;html=1;" parent="1" vertex="1">
          <mxGeometry x="612.4626626563637" y="256.56188928948563" width="195.8024582681959" height="204.27997321178051" as="geometry" />
        </mxCell>
        <mxCell id="21543" value="" style="ellipse;whiteSpace=wrap;fillColor=#2F5B7C;opacity=60;strokeColor=none;html=1;" parent="1" vertex="1">
          <mxGeometry x="484.37991635376034" y="261.5568645201126" width="370" height="140" as="geometry" />
        </mxCell>
        <mxCell id="21544" value="" style="ellipse;whiteSpace=wrap;fillColor=#12AAB5;opacity=60;strokeColor=none;rotation=15;html=1;" parent="1" vertex="1">
          <mxGeometry x="476.83816655200263" y="356.06258490150304" width="291.24044096383477" height="120" as="geometry" />
        </mxCell>
        <mxCell id="21546" value="A" style="text;spacingTop=-5;fontStyle=0;fontSize=14;html=1;fontColor=#FFFFFF;" parent="1" vertex="1">
          <mxGeometry x="501.38" y="336.05770608387354" width="30" height="20" as="geometry" />
        </mxCell>
        <mxCell id="21547" value="B" style="text;spacingTop=-5;fontStyle=0;fontSize=14;html=1;fontColor=#FFFFFF;" parent="1" vertex="1">
          <mxGeometry x="750.5" y="401.56034797028497" width="30" height="20" as="geometry" />
        </mxCell>
        <mxCell id="21548" value="C" style="text;spacingTop=-5;fontStyle=0;fontSize=14;html=1;fontColor=#FFFFFF;" parent="1" vertex="1">
          <mxGeometry x="791.2651209245596" y="312.74770608387354" width="30" height="20" as="geometry" />
        </mxCell>
        <mxCell id="21549" value="D" style="text;spacingTop=-5;fontStyle=0;fontSize=14;html=1;fontColor=#FFFFFF;" parent="1" vertex="1">
          <mxGeometry x="712.0599163537603" y="454.9765799393195" width="30" height="20" as="geometry" />
        </mxCell>
        <mxCell id="21551" value="AC" style="text;spacingTop=-5;fontStyle=0;fontSize=14;html=1;fontColor=#FFFFFF;" parent="1" vertex="1">
          <mxGeometry x="537.7783870339199" y="310.84" width="30" height="20" as="geometry" />
        </mxCell>
        <mxCell id="21552" value="BC" style="text;spacingTop=-5;fontStyle=0;fontSize=14;html=1;fontColor=#FFFFFF;" parent="1" vertex="1">
          <mxGeometry x="748.5" y="342.74770608387354" width="30" height="20" as="geometry" />
        </mxCell>
        <mxCell id="21553" value="ABC" style="text;spacingTop=-5;fontStyle=0;fontSize=14;html=1;fontColor=#FFFFFF;" parent="1" vertex="1">
          <mxGeometry x="611.3799163537603" y="322.74770608387354" width="30" height="20" as="geometry" />
        </mxCell>
        <mxCell id="21556" value="BD" style="text;spacingTop=-5;fontStyle=0;fontSize=14;html=1;fontColor=#FFFFFF;" parent="1" vertex="1">
          <mxGeometry x="731.0438917904614" y="419.1518625012662" width="30" height="20" as="geometry" />
        </mxCell>
        <mxCell id="21558" value="AD" style="text;spacingTop=-5;fontStyle=0;fontSize=14;html=1;fontColor=#FFFFFF;" parent="1" vertex="1">
          <mxGeometry x="522.0614241751806" y="369.2091419126428" width="30" height="20" as="geometry" />
        </mxCell>
        <mxCell id="21560" value="A" style="ellipse;whiteSpace=wrap;rotation=0;fillColor=#f08705;opacity=60;strokeColor=none;html=1;gradientColor=none;fontSize=15;fontColor=#FFFFFF;shadow=1;" parent="1" vertex="1">
          <mxGeometry x="320.00000000000006" y="261.554724710808" width="39.99999999999994" height="41.86876774444315" as="geometry" />
        </mxCell>
        <mxCell id="21561" value="B" style="ellipse;whiteSpace=wrap;rotation=0;fillColor=#e85642;opacity=60;strokeColor=none;html=1;fontSize=15;fontColor=#FFFFFF;shadow=1;" parent="1" vertex="1">
          <mxGeometry x="320" y="311.554724710808" width="40" height="38.09229391612644" as="geometry" />
        </mxCell>
        <mxCell id="21562" value="C" style="ellipse;whiteSpace=wrap;fillColor=#2f5b7c;opacity=60;strokeColor=none;html=1;fontSize=15;fontColor=#FFFFFF;shadow=1;" parent="1" vertex="1">
          <mxGeometry x="320" y="364.1312458370708" width="40" height="37.42347887373717" as="geometry" />
        </mxCell>
        <mxCell id="21563" value="D" style="ellipse;whiteSpace=wrap;fillColor=#12aab5;opacity=60;strokeColor=none;html=1;fontSize=15;fontColor=#FFFFFF;shadow=1;" parent="1" vertex="1">
          <mxGeometry x="320" y="413.46243079468155" width="40" height="38.09229391612644" as="geometry" />
        </mxCell>
        <mxCell id="7NP8okd-AqSySyYiOhPf-21567" value="" style="endArrow=classic;html=1;rounded=0;" parent="1" edge="1">
          <mxGeometry width="50" height="50" relative="1" as="geometry">
            <mxPoint x="280" y="520" as="sourcePoint" />
            <mxPoint x="880" y="520" as="targetPoint" />
          </mxGeometry>
        </mxCell>
        <mxCell id="7NP8okd-AqSySyYiOhPf-21568" value="" style="endArrow=classic;html=1;rounded=0;" parent="1" edge="1">
          <mxGeometry width="50" height="50" relative="1" as="geometry">
            <mxPoint x="280" y="520.67" as="sourcePoint" />
            <mxPoint x="280" y="120" as="targetPoint" />
          </mxGeometry>
        </mxCell>
        <mxCell id="7NP8okd-AqSySyYiOhPf-21571" value="" style="endArrow=classic;html=1;rounded=0;" parent="1" edge="1">
          <mxGeometry width="50" height="50" relative="1" as="geometry">
            <mxPoint x="780" y="230" as="sourcePoint" />
            <mxPoint x="651.04" y="376.56" as="targetPoint" />
          </mxGeometry>
        </mxCell>
        <mxCell id="7NP8okd-AqSySyYiOhPf-21576" value="" style="curved=1;endArrow=none;html=1;rounded=0;endFill=0;strokeWidth=3;" parent="1" edge="1">
          <mxGeometry width="50" height="50" relative="1" as="geometry">
            <mxPoint x="620" y="400" as="sourcePoint" />
            <mxPoint x="620" y="400" as="targetPoint" />
            <Array as="points">
              <mxPoint x="640" y="400" />
              <mxPoint x="650" y="400" />
              <mxPoint x="660" y="390" />
              <mxPoint x="680" y="370" />
              <mxPoint x="650" y="360" />
              <mxPoint x="600" y="350" />
            </Array>
          </mxGeometry>
        </mxCell>
        <mxCell id="7NP8okd-AqSySyYiOhPf-21577" value="&lt;font style=&quot;font-size: 16px;&quot;&gt;帕累托最优&lt;/font&gt;" style="text;html=1;strokeColor=none;fillColor=none;align=center;verticalAlign=middle;whiteSpace=wrap;rounded=0;shadow=1;" parent="1" vertex="1">
          <mxGeometry x="776.27" y="190" width="83.73" height="30" as="geometry" />
        </mxCell>
        <mxCell id="7NP8okd-AqSySyYiOhPf-21579" value="" style="endArrow=classic;html=1;rounded=0;" parent="1" edge="1">
          <mxGeometry width="50" height="50" relative="1" as="geometry">
            <mxPoint x="916.8100000000001" y="490" as="sourcePoint" />
            <mxPoint x="768.08" y="490.42999999999995" as="targetPoint" />
          </mxGeometry>
        </mxCell>
        <mxCell id="7NP8okd-AqSySyYiOhPf-21580" value="&lt;font style=&quot;font-size: 16px;&quot;&gt;不可行域&lt;/font&gt;" style="text;html=1;strokeColor=none;fillColor=none;align=center;verticalAlign=middle;whiteSpace=wrap;rounded=0;shadow=1;" parent="1" vertex="1">
          <mxGeometry x="920" y="451.55" width="70" height="30" as="geometry" />
        </mxCell>
      </root>
    </mxGraphModel>
  </diagram>
</mxfile>
